<svg width="24" height="25" viewBox="0 0 24 25" fill="none" xmlns="http://www.w3.org/2000/svg">
    <g clip-path="url(#clip0)">
        <path d="M23.211 10.2135H18.5638L15.1809 2.06291C15.0139 1.66046 14.5521 1.46973 14.1498 1.63663C13.7473 1.80369 13.5564 2.26536 13.7235 2.66781L16.8553 10.2135H7.14473L10.2765 2.66781C10.4436 2.26536 10.2527 1.80364 9.85027 1.63663C9.44798 1.46963 8.9861 1.66046 8.8191 2.06291L5.43622 10.2135H0.789002C0.353263 10.2135 0 10.5667 0 11.0025C0 11.4382 0.353263 11.7915 0.789002 11.7915H1.26346L2.81032 20.2513C3.14659 22.0902 4.74748 23.4249 6.61683 23.4249H17.3832C19.2526 23.4249 20.8535 22.0902 21.1897 20.2513L22.7366 11.7915H23.211C23.6468 11.7915 24 11.4382 24 11.0025C24 10.5667 23.6467 10.2135 23.211 10.2135ZM19.6374 19.9674C19.4382 21.0565 18.4902 21.8468 17.3832 21.8468H6.61678C5.50976 21.8468 4.56169 21.0565 4.36255 19.9674L2.87439 11.8288H21.1255L19.6374 19.9674Z" fill="white"/>
    </g>
    <defs>
        <clipPath id="clip0">
            <rect width="24" height="24" fill="white" transform="translate(0 0.5)"/>
        </clipPath>
    </defs>
</svg>
