<svg width="19" height="19" viewBox="0 0 19 19" fill="none" xmlns="http://www.w3.org/2000/svg">
    <path d="M11.7699 9.34567C11.5746 9.54093 11.5746 9.85751 11.7699 10.0528L17.8308 16.1137C18.305 16.5879 18.305 17.3567 17.8308 17.8309C17.3566 18.3052 16.5878 18.3052 16.1135 17.8309L10.0526 11.77C9.85737 11.5748 9.54079 11.5748 9.34553 11.77L3.28461 17.8309C2.8104 18.3052 2.04156 18.3052 1.56735 17.8309C1.09314 17.3567 1.09314 16.5879 1.56735 16.1137L7.62827 10.0528C7.82353 9.85751 7.82353 9.54093 7.62827 9.34567L1.56735 3.28475C1.09314 2.81054 1.09314 2.0417 1.56735 1.56749C2.04156 1.09328 2.8104 1.09328 3.28461 1.56749L9.34553 7.62841C9.54079 7.82367 9.85737 7.82367 10.0526 7.62841L16.1135 1.56749C16.5878 1.09328 17.3566 1.09328 17.8308 1.56749C18.305 2.0417 18.305 2.81054 17.8308 3.28475L11.7699 9.34567Z" fill="#B0BEC5" stroke-linejoin="round"/>
</svg>
