<svg width="70" height="70" viewBox="0 0 70 70" fill="none" xmlns="http://www.w3.org/2000/svg">
    <path d="M70 52.3633C70 62.0647 62.0599 70 52.3633 70H17.6367C7.9353 70 0 62.0647 0 52.3633V17.6367C0 7.9353 7.9353 0 17.6367 0H52.3633C62.0647 0 70 7.9353 70 17.6367V52.3633Z" fill="#36A9E1"/>
    <path d="M14.1002 29.2003H22.0791C22.3258 29.2003 22.5387 29.2778 22.7178 29.4278C22.8968 29.5874 22.9839 29.7858 22.9839 30.0181V30.0423C22.9839 30.2745 22.8968 30.4729 22.7178 30.6326C22.5387 30.7874 22.3258 30.86 22.0791 30.86H14.1002V35.6212C14.1002 36.284 14.3615 36.855 14.8889 37.3292C15.4163 37.8034 16.0453 38.0405 16.776 38.0405H22.0791C22.3258 38.0405 22.5387 38.1227 22.7178 38.2824C22.8968 38.4421 22.9839 38.6404 22.9839 38.8727V38.9017C22.9839 39.1243 22.8968 39.3178 22.7178 39.4775C22.5387 39.6372 22.3258 39.7194 22.0791 39.7194H16.7711C15.5131 39.7194 14.4438 39.3227 13.5631 38.5243C12.6825 37.726 12.2422 36.7582 12.2422 35.6212V24.444C12.2422 23.3069 12.6825 22.3392 13.5631 21.5408C14.4438 20.7425 15.5131 20.3457 16.7711 20.3457H22.0742C22.321 20.3457 22.5339 20.428 22.7129 20.5876C22.8919 20.7473 22.979 20.9409 22.979 21.1683V21.1925C22.979 21.4247 22.8919 21.6231 22.7129 21.7828C22.5339 21.9424 22.321 22.0247 22.0742 22.0247H16.7711C16.0356 22.0247 15.4066 22.2618 14.8841 22.736C14.3615 23.2102 14.0954 23.7811 14.0954 24.444V29.2003H14.1002Z" fill="white"/>
    <path d="M30.9767 20.3418C33.9379 20.3418 36.4637 21.2853 38.5539 23.1772C40.6442 25.0691 41.6894 27.3529 41.6894 30.0335C41.6894 32.7141 40.6442 34.9979 38.5539 36.8898C36.4637 38.7817 33.9379 39.7252 30.9767 39.7252H28.7316C27.8219 39.7252 27.0429 39.4349 26.3994 38.8494C25.7558 38.2688 25.4316 37.5624 25.4316 36.7398V23.3272C25.4316 22.495 25.7558 21.7837 26.3994 21.2031C27.0429 20.6321 27.8219 20.3418 28.7316 20.3418H30.9767ZM27.2945 36.7446C27.2945 37.1027 27.4348 37.4124 27.7106 37.6736C27.9961 37.9253 28.3396 38.0511 28.7364 38.0511H30.9815C33.4299 38.0511 35.5201 37.272 37.2523 35.714C38.9846 34.1463 39.8507 32.2544 39.8507 30.0383C39.8507 27.8271 38.9846 25.9352 37.2523 24.3675C35.5201 22.7998 33.4299 22.016 30.9815 22.016H28.7364C28.3396 22.016 27.9961 22.1466 27.7106 22.4079C27.4348 22.6692 27.2945 22.9788 27.2945 23.3369V36.7446Z" fill="white"/>
    <path d="M57.8123 38.9075C57.8123 39.1301 57.7252 39.3236 57.5462 39.4833C57.3672 39.643 57.1543 39.7252 56.9075 39.7252H56.864C56.6172 39.7252 56.4043 39.643 56.2253 39.4833C56.0462 39.3236 55.9592 39.1301 55.9592 38.9075V32.1044H46.0739V38.9075C46.0739 39.1301 45.9868 39.3236 45.8078 39.4833C45.6287 39.643 45.4158 39.7252 45.1691 39.7252H45.1255C44.8788 39.7252 44.6659 39.643 44.4868 39.4833C44.3078 39.3236 44.2207 39.1301 44.2207 38.9075V26.4868C44.2207 24.7836 44.8836 23.332 46.2142 22.1321C47.54 20.9418 49.1416 20.3418 51.0141 20.3418C52.8963 20.3418 54.5027 20.9369 55.8285 22.1321C57.1543 23.332 57.8172 24.7836 57.8172 26.4868V38.9075H57.8123ZM55.9592 30.4399V26.4868C55.9592 25.2578 55.4801 24.2078 54.5173 23.3272C53.5447 22.4466 52.3786 22.0111 51.0093 22.0111C49.6496 22.0111 48.4883 22.4514 47.5158 23.3272C46.5529 24.2078 46.0739 25.2578 46.0739 26.4868V30.4399H55.9592Z" fill="white"/>
    <path d="M17.0312 45.1979C17.2441 45.2511 17.3554 45.372 17.3554 45.5704V45.5849C17.3554 45.7107 17.2973 45.8124 17.186 45.8898C17.0747 45.9672 16.9538 45.9866 16.8231 45.9575C16.6054 45.9091 16.3828 45.8801 16.1602 45.8801C15.4296 45.8801 14.8054 46.1124 14.2877 46.5817C13.77 47.051 13.5087 47.6172 13.5087 48.28C13.5087 48.9429 13.77 49.5091 14.2877 49.9784C14.8054 50.4429 15.4296 50.6752 16.1602 50.6752C16.3828 50.6752 16.6054 50.651 16.8231 50.6026C16.9586 50.5736 17.0796 50.5929 17.186 50.6703C17.2973 50.7477 17.3554 50.8493 17.3554 50.9752V50.9848C17.3554 51.1832 17.2489 51.309 17.0312 51.3622C16.7457 51.4251 16.4506 51.459 16.1554 51.459C15.1877 51.459 14.3554 51.1493 13.6732 50.53C12.9861 49.9107 12.6426 49.1607 12.6426 48.2849C12.6426 47.4091 12.9861 46.6591 13.6732 46.0398C14.3603 45.4204 15.1877 45.1059 16.1554 45.1059C16.4506 45.1011 16.7457 45.135 17.0312 45.1979Z" fill="white"/>
    <path d="M20.9755 50.036C20.9755 50.2102 21.0432 50.3602 21.1835 50.486C21.319 50.6118 21.4835 50.6747 21.6771 50.6747H23.0367C23.1577 50.6747 23.2545 50.7134 23.3416 50.7908C23.4238 50.8682 23.4674 50.9602 23.4674 51.0666V51.0763C23.4674 51.1828 23.4238 51.2747 23.3416 51.3473C23.2593 51.4247 23.1577 51.4634 23.0367 51.4634H21.6771C21.2464 51.4634 20.8739 51.3231 20.569 51.0473C20.2642 50.7715 20.1094 50.4376 20.1094 50.0457V45.4926C20.1094 45.3861 20.1529 45.2942 20.2352 45.2168C20.3174 45.1442 20.419 45.1055 20.5352 45.1055H20.5497C20.6658 45.1055 20.7626 45.1442 20.8497 45.2168C20.9319 45.2942 20.9755 45.3861 20.9755 45.4926V50.036Z" fill="white"/>
    <path d="M26.5262 45.1016C26.6424 45.1016 26.7391 45.1403 26.8262 45.2129C26.9085 45.2903 26.952 45.3822 26.952 45.4887V51.0724C26.952 51.1789 26.9085 51.2708 26.8262 51.3434C26.744 51.4208 26.6424 51.4595 26.5262 51.4595H26.5117C26.3956 51.4595 26.294 51.4208 26.2117 51.3434C26.1295 51.2708 26.0859 51.1789 26.0859 51.0724V45.4887C26.0859 45.3822 26.1295 45.2903 26.2117 45.2129C26.294 45.1403 26.3956 45.1016 26.5117 45.1016H26.5262Z" fill="white"/>
    <path d="M34.2617 45.1979C34.4746 45.2511 34.5858 45.372 34.5858 45.5704V45.5849C34.5858 45.7107 34.5278 45.8124 34.4165 45.8898C34.3052 45.9672 34.1842 45.9866 34.0536 45.9575C33.8359 45.9091 33.6133 45.8801 33.3907 45.8801C32.6601 45.8801 32.0359 46.1124 31.5182 46.5817C31.0004 47.051 30.7392 47.6172 30.7392 48.28C30.7392 48.9429 31.0004 49.5091 31.5182 49.9784C32.0359 50.4429 32.6601 50.6752 33.3907 50.6752C33.6133 50.6752 33.8359 50.651 34.0536 50.6026C34.1891 50.5736 34.31 50.5929 34.4165 50.6703C34.5278 50.7477 34.5858 50.8493 34.5858 50.9752V50.9848C34.5858 51.1832 34.4794 51.309 34.2617 51.3622C33.9762 51.4251 33.681 51.459 33.3859 51.459C32.4181 51.459 31.5859 51.1493 30.9037 50.53C30.2166 49.9107 29.873 49.1607 29.873 48.2849C29.873 47.4091 30.2166 46.6591 30.9037 46.0398C31.5907 45.4204 32.4181 45.1059 33.3859 45.1059C33.681 45.1011 33.9713 45.135 34.2617 45.1979Z" fill="white"/>
    <path d="M37.7313 45.1016C37.8475 45.1016 37.9442 45.1403 38.0313 45.2129C38.1136 45.2903 38.1571 45.3822 38.1571 45.4887V47.6805H38.7861C39.2506 47.6805 39.6474 47.5305 39.9716 47.2354C40.3006 46.9402 40.47 46.5822 40.47 46.1612V45.4887C40.47 45.3822 40.5135 45.2903 40.5958 45.2129C40.678 45.1403 40.7748 45.1016 40.8958 45.1016H40.9103C41.0264 45.1016 41.1232 45.1403 41.2103 45.2129C41.2925 45.2903 41.3361 45.3822 41.3361 45.4887V46.1612C41.3361 46.9354 40.9925 47.5499 40.3055 48.0144C40.6829 48.2225 40.978 48.4934 41.2006 48.8418C41.4232 49.195 41.5393 49.5821 41.5393 49.9934V51.0772C41.5393 51.1837 41.5006 51.2756 41.4183 51.3482C41.3361 51.4256 41.2345 51.4643 41.1135 51.4643H41.1038C40.9877 51.4643 40.8861 51.4256 40.799 51.3482C40.7167 51.2756 40.678 51.1837 40.678 51.0772V49.9934C40.6732 49.5724 40.5087 49.2144 40.1797 48.9192C39.8506 48.6241 39.449 48.4741 38.9845 48.4741H38.1571V51.0772C38.1571 51.1837 38.1136 51.2756 38.0313 51.3482C37.9491 51.4256 37.8475 51.4643 37.7313 51.4643H37.7168C37.6007 51.4643 37.4991 51.4256 37.4168 51.3482C37.3346 51.2756 37.291 51.1837 37.291 51.0772V45.4887C37.291 45.3822 37.3346 45.2903 37.4168 45.2129C37.4991 45.1403 37.6007 45.1016 37.7168 45.1016H37.7313Z" fill="white"/>
    <path d="M57.6419 53.8737C58.4064 54.6382 59.1418 55.3834 59.8822 56.1237C60.6563 56.8979 61.4305 57.6672 62.2047 58.4414C62.6595 58.901 62.6547 59.3123 62.1998 59.772C61.5224 60.4542 60.8402 61.1365 60.158 61.8187C59.6789 62.2977 59.2725 62.2977 58.7983 61.8236C57.3419 60.372 55.8903 58.9156 54.4339 57.4591C54.3758 57.4011 54.3178 57.3479 54.2403 57.2753C53.9307 57.8075 53.6307 58.3204 53.3355 58.8333C53.021 59.3849 52.7017 59.9317 52.3872 60.4833C52.2033 60.8075 51.9565 61.0204 51.5598 60.9865C51.1775 60.9526 50.9743 60.701 50.8436 60.3623C49.6969 57.4785 48.5453 54.5898 47.3937 51.706C46.6002 49.7222 45.8067 47.7384 45.018 45.7497C44.7954 45.1933 44.9938 44.6997 45.5115 44.5885C45.7002 44.5498 45.9276 44.5836 46.1115 44.6562C48.0227 45.4062 49.9291 46.1755 51.8356 46.9352C54.7919 48.1158 57.7483 49.2964 60.7047 50.4722C61.0579 50.6125 61.3241 50.8109 61.3531 51.2173C61.3773 51.5899 61.1837 51.8318 60.8741 52.0109C59.9015 52.5673 58.9289 53.1334 57.9564 53.6947C57.8548 53.7479 57.758 53.806 57.6419 53.8737Z" fill="#F39200"/>
    <path d="M59.477 62.3887C59.2012 62.3887 58.9254 62.2484 58.6496 61.9726L54.29 57.6179L53.361 59.2195C53.0997 59.6743 52.8336 60.1291 52.5771 60.5888C52.3207 61.0388 51.982 61.2372 51.5465 61.1984C50.9272 61.1452 50.7191 60.613 50.6465 60.4436C49.4998 57.555 48.3482 54.6712 47.1966 51.7874L44.8209 45.8359C44.6805 45.4778 44.6805 45.1246 44.8305 44.8488C44.9563 44.6117 45.1838 44.4472 45.4692 44.3843C45.6821 44.3359 45.9482 44.365 46.1902 44.4617C47.6127 45.0182 49.0304 45.5891 50.4481 46.1552L52.7755 47.0842C55.4464 48.1487 58.1125 49.2132 60.7834 50.2777C61.1027 50.4035 61.5285 50.6358 61.5672 51.2067C61.5963 51.6277 61.3979 51.9616 60.9769 52.1986C60.2173 52.6341 59.4528 53.0744 58.6931 53.5147L57.9867 53.926L60.9624 56.9066C61.4269 57.3711 61.8914 57.8356 62.3559 58.3001C62.893 58.842 62.893 59.3888 62.3511 59.9307L60.3092 61.9775C60.0286 62.2484 59.7528 62.3887 59.477 62.3887ZM54.1932 56.9308L54.4593 57.1872C54.5077 57.2308 54.5464 57.2695 54.5851 57.3082L58.9496 61.6726C59.3415 62.0645 59.6076 62.0645 60.0044 61.6678L62.0463 59.6211C62.4188 59.2485 62.4188 58.9678 62.0511 58.5953C61.5866 58.1308 61.1221 57.6663 60.6576 57.2066L57.2899 53.8341L58.4754 53.1422C59.235 52.7019 59.9995 52.2616 60.7592 51.8261C61.035 51.6664 61.1511 51.4874 61.1318 51.2358C61.1124 50.9745 60.9672 50.81 60.6189 50.6745C57.948 49.6148 55.2771 48.5503 52.611 47.481L50.2836 46.552C48.8659 45.9859 47.4482 45.4198 46.0305 44.8585C45.866 44.7956 45.687 44.7714 45.5563 44.8004C45.3918 44.8343 45.2708 44.9214 45.2031 45.0472C45.116 45.2117 45.1208 45.4343 45.2176 45.6714L47.5934 51.6229C48.745 54.5067 49.8917 57.3953 51.0433 60.2791C51.1739 60.6033 51.3239 60.7436 51.5804 60.7678C51.8417 60.792 52.0304 60.6759 52.1997 60.3759C52.461 59.9162 52.7223 59.4614 52.9884 59.0066L54.1932 56.9308Z" fill="white"/>
</svg>
