<svg width="20" height="25" viewBox="0 0 20 25" fill="none" xmlns="http://www.w3.org/2000/svg">
    <path d="M15.0483 12.0977C14.7237 12.5064 14.3591 12.8837 13.9403 13.2243C16.3309 14.5956 17.9449 17.1737 17.9449 20.1218C17.9449 21.7147 14.4547 22.9625 9.99918 22.9625C5.54367 22.9625 2.05349 21.7147 2.05349 20.1218C2.05349 17.1737 3.66745 14.5956 6.0581 13.2243C5.63933 12.8837 5.27468 12.5064 4.95005 12.0977C2.28777 13.7789 0.515625 16.7471 0.515625 20.1218C0.515625 21.144 1.07538 22.5687 3.74223 23.5506C5.40573 24.1631 7.62783 24.5004 9.99924 24.5004C12.3706 24.5004 14.5927 24.1631 16.2562 23.5506C18.923 22.5687 19.4828 21.144 19.4828 20.1218C19.4827 16.7471 17.7106 13.7789 15.0483 12.0977Z" fill="#455A64"/>
    <path d="M9.99734 13.1106C12.9861 13.1106 15.2876 10.2216 15.2876 6.80533C15.2876 3.38751 12.985 0.5 9.99734 0.5C7.00854 0.5 4.70703 3.38904 4.70703 6.80528C4.70703 10.2231 7.00975 13.1106 9.99734 13.1106ZM9.99734 2.03786C12.0664 2.03786 13.7498 4.17651 13.7498 6.80528C13.7498 9.43405 12.0664 11.5727 9.99734 11.5727C7.92827 11.5727 6.2449 9.43405 6.2449 6.80528C6.2449 4.17651 7.92827 2.03786 9.99734 2.03786Z" fill="#455A64"/>
</svg>
